<mxfile host="app.diagrams.net" agent="Mozilla/5.0 (Macintosh; Intel Mac OS X 10_15_7) AppleWebKit/605.1.15 (KHTML, like Gecko) Version/17.5 Safari/605.1.15" version="24.7.12">
  <diagram name="Page-1" id="-WEWshbSN8Sq_lcNsga_">
    <mxGraphModel dx="2560" dy="2215" grid="1" gridSize="10" guides="1" tooltips="1" connect="1" arrows="1" fold="1" page="1" pageScale="1" pageWidth="850" pageHeight="1100" math="0" shadow="0">
      <root>
        <mxCell id="0" />
        <mxCell id="1" parent="0" />
        <mxCell id="xQnQvobqsvPUaE5G5NAj-17" value="" style="edgeStyle=orthogonalEdgeStyle;rounded=0;orthogonalLoop=1;jettySize=auto;html=1;" edge="1" parent="1" source="xQnQvobqsvPUaE5G5NAj-5" target="xQnQvobqsvPUaE5G5NAj-15">
          <mxGeometry relative="1" as="geometry" />
        </mxCell>
        <mxCell id="xQnQvobqsvPUaE5G5NAj-5" value="Card" style="swimlane;fontStyle=0;childLayout=stackLayout;horizontal=1;startSize=30;horizontalStack=0;resizeParent=1;resizeParentMax=0;resizeLast=0;collapsible=1;marginBottom=0;whiteSpace=wrap;html=1;movable=1;resizable=1;rotatable=1;deletable=1;editable=1;locked=0;connectable=1;" vertex="1" parent="1">
          <mxGeometry x="-630" y="-250" width="140" height="190" as="geometry" />
        </mxCell>
        <mxCell id="xQnQvobqsvPUaE5G5NAj-8" value="List&amp;lt;Item&amp;gt;" style="text;strokeColor=none;fillColor=none;align=center;verticalAlign=middle;spacingLeft=4;spacingRight=4;overflow=hidden;points=[[0,0.5],[1,0.5]];portConstraint=eastwest;rotatable=0;whiteSpace=wrap;html=1;" vertex="1" parent="xQnQvobqsvPUaE5G5NAj-5">
          <mxGeometry y="30" width="140" height="40" as="geometry" />
        </mxCell>
        <mxCell id="xQnQvobqsvPUaE5G5NAj-67" value="totalAmount" style="text;strokeColor=none;fillColor=none;align=center;verticalAlign=middle;spacingLeft=4;spacingRight=4;overflow=hidden;points=[[0,0.5],[1,0.5]];portConstraint=eastwest;rotatable=0;whiteSpace=wrap;html=1;" vertex="1" parent="xQnQvobqsvPUaE5G5NAj-5">
          <mxGeometry y="70" width="140" height="40" as="geometry" />
        </mxCell>
        <mxCell id="xQnQvobqsvPUaE5G5NAj-68" value="totalDiscount" style="text;strokeColor=none;fillColor=none;align=center;verticalAlign=middle;spacingLeft=4;spacingRight=4;overflow=hidden;points=[[0,0.5],[1,0.5]];portConstraint=eastwest;rotatable=0;whiteSpace=wrap;html=1;" vertex="1" parent="xQnQvobqsvPUaE5G5NAj-5">
          <mxGeometry y="110" width="140" height="40" as="geometry" />
        </mxCell>
        <mxCell id="xQnQvobqsvPUaE5G5NAj-69" value="totalPrice" style="text;strokeColor=none;fillColor=none;align=center;verticalAlign=middle;spacingLeft=4;spacingRight=4;overflow=hidden;points=[[0,0.5],[1,0.5]];portConstraint=eastwest;rotatable=0;whiteSpace=wrap;html=1;" vertex="1" parent="xQnQvobqsvPUaE5G5NAj-5">
          <mxGeometry y="150" width="140" height="40" as="geometry" />
        </mxCell>
        <mxCell id="xQnQvobqsvPUaE5G5NAj-46" value="" style="edgeStyle=orthogonalEdgeStyle;rounded=0;orthogonalLoop=1;jettySize=auto;html=1;exitX=0.5;exitY=1;exitDx=0;exitDy=0;exitPerimeter=0;" edge="1" parent="1" source="xQnQvobqsvPUaE5G5NAj-16" target="xQnQvobqsvPUaE5G5NAj-41">
          <mxGeometry relative="1" as="geometry">
            <Array as="points">
              <mxPoint x="-568" y="110" />
              <mxPoint x="-568" y="130" />
              <mxPoint x="-710" y="130" />
            </Array>
          </mxGeometry>
        </mxCell>
        <mxCell id="xQnQvobqsvPUaE5G5NAj-59" value="" style="edgeStyle=orthogonalEdgeStyle;rounded=0;orthogonalLoop=1;jettySize=auto;html=1;" edge="1" parent="1" source="xQnQvobqsvPUaE5G5NAj-15" target="xQnQvobqsvPUaE5G5NAj-54">
          <mxGeometry relative="1" as="geometry">
            <Array as="points">
              <mxPoint x="-560" y="130" />
              <mxPoint x="-460" y="130" />
            </Array>
          </mxGeometry>
        </mxCell>
        <mxCell id="xQnQvobqsvPUaE5G5NAj-15" value="Item" style="swimlane;fontStyle=0;childLayout=stackLayout;horizontal=1;startSize=30;horizontalStack=0;resizeParent=1;resizeParentMax=0;resizeLast=0;collapsible=1;marginBottom=0;whiteSpace=wrap;html=1;movable=1;resizable=1;rotatable=1;deletable=1;editable=1;locked=0;connectable=1;" vertex="1" parent="1">
          <mxGeometry x="-630" y="-40" width="140" height="150" as="geometry" />
        </mxCell>
        <mxCell id="xQnQvobqsvPUaE5G5NAj-37" value="Category" style="text;strokeColor=none;fillColor=none;align=center;verticalAlign=middle;spacingLeft=4;spacingRight=4;overflow=hidden;points=[[0,0.5],[1,0.5]];portConstraint=eastwest;rotatable=0;whiteSpace=wrap;html=1;" vertex="1" parent="xQnQvobqsvPUaE5G5NAj-15">
          <mxGeometry y="30" width="140" height="40" as="geometry" />
        </mxCell>
        <mxCell id="xQnQvobqsvPUaE5G5NAj-38" value="Seller" style="text;strokeColor=none;fillColor=none;align=center;verticalAlign=middle;spacingLeft=4;spacingRight=4;overflow=hidden;points=[[0,0.5],[1,0.5]];portConstraint=eastwest;rotatable=0;whiteSpace=wrap;html=1;" vertex="1" parent="xQnQvobqsvPUaE5G5NAj-15">
          <mxGeometry y="70" width="140" height="40" as="geometry" />
        </mxCell>
        <mxCell id="xQnQvobqsvPUaE5G5NAj-16" value="Card" style="text;strokeColor=none;fillColor=none;align=center;verticalAlign=middle;spacingLeft=4;spacingRight=4;overflow=hidden;points=[[0,0.5],[1,0.5]];portConstraint=eastwest;rotatable=0;whiteSpace=wrap;html=1;" vertex="1" parent="xQnQvobqsvPUaE5G5NAj-15">
          <mxGeometry y="110" width="140" height="40" as="geometry" />
        </mxCell>
        <mxCell id="xQnQvobqsvPUaE5G5NAj-66" value="" style="edgeStyle=orthogonalEdgeStyle;rounded=0;orthogonalLoop=1;jettySize=auto;html=1;" edge="1" parent="1" source="xQnQvobqsvPUaE5G5NAj-41" target="xQnQvobqsvPUaE5G5NAj-60">
          <mxGeometry relative="1" as="geometry" />
        </mxCell>
        <mxCell id="xQnQvobqsvPUaE5G5NAj-41" value="Default Item" style="swimlane;fontStyle=0;childLayout=stackLayout;horizontal=1;startSize=30;horizontalStack=0;resizeParent=1;resizeParentMax=0;resizeLast=0;collapsible=1;marginBottom=0;whiteSpace=wrap;html=1;movable=1;resizable=1;rotatable=1;deletable=1;editable=1;locked=0;connectable=1;" vertex="1" parent="1">
          <mxGeometry x="-780" y="150" width="140" height="190" as="geometry" />
        </mxCell>
        <mxCell id="xQnQvobqsvPUaE5G5NAj-43" value="Category" style="text;strokeColor=none;fillColor=none;align=center;verticalAlign=middle;spacingLeft=4;spacingRight=4;overflow=hidden;points=[[0,0.5],[1,0.5]];portConstraint=eastwest;rotatable=0;whiteSpace=wrap;html=1;" vertex="1" parent="xQnQvobqsvPUaE5G5NAj-41">
          <mxGeometry y="30" width="140" height="40" as="geometry" />
        </mxCell>
        <mxCell id="xQnQvobqsvPUaE5G5NAj-44" value="Seller" style="text;strokeColor=none;fillColor=none;align=center;verticalAlign=middle;spacingLeft=4;spacingRight=4;overflow=hidden;points=[[0,0.5],[1,0.5]];portConstraint=eastwest;rotatable=0;whiteSpace=wrap;html=1;" vertex="1" parent="xQnQvobqsvPUaE5G5NAj-41">
          <mxGeometry y="70" width="140" height="40" as="geometry" />
        </mxCell>
        <mxCell id="xQnQvobqsvPUaE5G5NAj-45" value="Card" style="text;strokeColor=none;fillColor=none;align=center;verticalAlign=middle;spacingLeft=4;spacingRight=4;overflow=hidden;points=[[0,0.5],[1,0.5]];portConstraint=eastwest;rotatable=0;whiteSpace=wrap;html=1;" vertex="1" parent="xQnQvobqsvPUaE5G5NAj-41">
          <mxGeometry y="110" width="140" height="40" as="geometry" />
        </mxCell>
        <mxCell id="xQnQvobqsvPUaE5G5NAj-47" value="List&amp;lt;VasItem&amp;gt;" style="text;strokeColor=none;fillColor=none;align=center;verticalAlign=middle;spacingLeft=4;spacingRight=4;overflow=hidden;points=[[0,0.5],[1,0.5]];portConstraint=eastwest;rotatable=0;whiteSpace=wrap;html=1;" vertex="1" parent="xQnQvobqsvPUaE5G5NAj-41">
          <mxGeometry y="150" width="140" height="40" as="geometry" />
        </mxCell>
        <mxCell id="xQnQvobqsvPUaE5G5NAj-54" value="DigitalItem" style="swimlane;fontStyle=0;childLayout=stackLayout;horizontal=1;startSize=30;horizontalStack=0;resizeParent=1;resizeParentMax=0;resizeLast=0;collapsible=1;marginBottom=0;whiteSpace=wrap;html=1;movable=1;resizable=1;rotatable=1;deletable=1;editable=1;locked=0;connectable=1;" vertex="1" parent="1">
          <mxGeometry x="-510" y="150" width="140" height="150" as="geometry" />
        </mxCell>
        <mxCell id="xQnQvobqsvPUaE5G5NAj-56" value="Category" style="text;strokeColor=none;fillColor=none;align=center;verticalAlign=middle;spacingLeft=4;spacingRight=4;overflow=hidden;points=[[0,0.5],[1,0.5]];portConstraint=eastwest;rotatable=0;whiteSpace=wrap;html=1;" vertex="1" parent="xQnQvobqsvPUaE5G5NAj-54">
          <mxGeometry y="30" width="140" height="40" as="geometry" />
        </mxCell>
        <mxCell id="xQnQvobqsvPUaE5G5NAj-57" value="Seller" style="text;strokeColor=none;fillColor=none;align=center;verticalAlign=middle;spacingLeft=4;spacingRight=4;overflow=hidden;points=[[0,0.5],[1,0.5]];portConstraint=eastwest;rotatable=0;whiteSpace=wrap;html=1;" vertex="1" parent="xQnQvobqsvPUaE5G5NAj-54">
          <mxGeometry y="70" width="140" height="40" as="geometry" />
        </mxCell>
        <mxCell id="xQnQvobqsvPUaE5G5NAj-58" value="Card" style="text;strokeColor=none;fillColor=none;align=center;verticalAlign=middle;spacingLeft=4;spacingRight=4;overflow=hidden;points=[[0,0.5],[1,0.5]];portConstraint=eastwest;rotatable=0;whiteSpace=wrap;html=1;" vertex="1" parent="xQnQvobqsvPUaE5G5NAj-54">
          <mxGeometry y="110" width="140" height="40" as="geometry" />
        </mxCell>
        <mxCell id="xQnQvobqsvPUaE5G5NAj-60" value="VasItem" style="swimlane;fontStyle=0;childLayout=stackLayout;horizontal=1;startSize=30;horizontalStack=0;resizeParent=1;resizeParentMax=0;resizeLast=0;collapsible=1;marginBottom=0;whiteSpace=wrap;html=1;movable=1;resizable=1;rotatable=1;deletable=1;editable=1;locked=0;connectable=1;" vertex="1" parent="1">
          <mxGeometry x="-780" y="360" width="140" height="150" as="geometry" />
        </mxCell>
        <mxCell id="xQnQvobqsvPUaE5G5NAj-62" value="Category" style="text;strokeColor=none;fillColor=none;align=center;verticalAlign=middle;spacingLeft=4;spacingRight=4;overflow=hidden;points=[[0,0.5],[1,0.5]];portConstraint=eastwest;rotatable=0;whiteSpace=wrap;html=1;" vertex="1" parent="xQnQvobqsvPUaE5G5NAj-60">
          <mxGeometry y="30" width="140" height="40" as="geometry" />
        </mxCell>
        <mxCell id="xQnQvobqsvPUaE5G5NAj-63" value="Seller" style="text;strokeColor=none;fillColor=none;align=center;verticalAlign=middle;spacingLeft=4;spacingRight=4;overflow=hidden;points=[[0,0.5],[1,0.5]];portConstraint=eastwest;rotatable=0;whiteSpace=wrap;html=1;" vertex="1" parent="xQnQvobqsvPUaE5G5NAj-60">
          <mxGeometry y="70" width="140" height="40" as="geometry" />
        </mxCell>
        <mxCell id="xQnQvobqsvPUaE5G5NAj-64" value="Card" style="text;strokeColor=none;fillColor=none;align=center;verticalAlign=middle;spacingLeft=4;spacingRight=4;overflow=hidden;points=[[0,0.5],[1,0.5]];portConstraint=eastwest;rotatable=0;whiteSpace=wrap;html=1;" vertex="1" parent="xQnQvobqsvPUaE5G5NAj-60">
          <mxGeometry y="110" width="140" height="40" as="geometry" />
        </mxCell>
        <mxCell id="xQnQvobqsvPUaE5G5NAj-70" value="&lt;h1 style=&quot;margin-top: 0px;&quot;&gt;Card&lt;/h1&gt;&lt;p&gt;&lt;/p&gt;&lt;ul style=&quot;font-size: 13px;&quot;&gt;&lt;li&gt;&lt;span style=&quot;caret-color: rgb(31, 35, 40); color: rgb(31, 35, 40); font-family: -apple-system, BlinkMacSystemFont, &amp;quot;Segoe UI&amp;quot;, &amp;quot;Noto Sans&amp;quot;, Helvetica, Arial, sans-serif, &amp;quot;Apple Color Emoji&amp;quot;, &amp;quot;Segoe UI Emoji&amp;quot;; background-color: rgb(255, 255, 255);&quot;&gt;Can contain a maximum of&amp;nbsp;&lt;/span&gt;&lt;span style=&quot;box-sizing: border-box; caret-color: rgb(31, 35, 40); color: rgb(31, 35, 40); font-family: -apple-system, BlinkMacSystemFont, &amp;quot;Segoe UI&amp;quot;, &amp;quot;Noto Sans&amp;quot;, Helvetica, Arial, sans-serif, &amp;quot;Apple Color Emoji&amp;quot;, &amp;quot;Segoe UI Emoji&amp;quot;;&quot;&gt;&lt;b&gt;10&lt;/b&gt;&lt;/span&gt;&lt;span style=&quot;caret-color: rgb(31, 35, 40); color: rgb(31, 35, 40); font-family: -apple-system, BlinkMacSystemFont, &amp;quot;Segoe UI&amp;quot;, &amp;quot;Noto Sans&amp;quot;, Helvetica, Arial, sans-serif, &amp;quot;Apple Color Emoji&amp;quot;, &amp;quot;Segoe UI Emoji&amp;quot;; background-color: rgb(255, 255, 255);&quot;&gt;&lt;b&gt;&amp;nbsp;unique items&lt;/b&gt;&amp;nbsp;&lt;/span&gt;&lt;br&gt;&lt;/li&gt;&lt;li&gt;&lt;span style=&quot;caret-color: rgb(31, 35, 40); color: rgb(31, 35, 40); font-family: -apple-system, BlinkMacSystemFont, &amp;quot;Segoe UI&amp;quot;, &amp;quot;Noto Sans&amp;quot;, Helvetica, Arial, sans-serif, &amp;quot;Apple Color Emoji&amp;quot;, &amp;quot;Segoe UI Emoji&amp;quot;; background-color: rgb(255, 255, 255);&quot;&gt;The total number of products &lt;b&gt;cannot exceed&amp;nbsp;&lt;/b&gt;&lt;/span&gt;&lt;span style=&quot;box-sizing: border-box; caret-color: rgb(31, 35, 40); color: rgb(31, 35, 40); font-family: -apple-system, BlinkMacSystemFont, &amp;quot;Segoe UI&amp;quot;, &amp;quot;Noto Sans&amp;quot;, Helvetica, Arial, sans-serif, &amp;quot;Apple Color Emoji&amp;quot;, &amp;quot;Segoe UI Emoji&amp;quot;;&quot;&gt;&lt;b&gt;30&lt;/b&gt;&lt;/span&gt;&lt;span style=&quot;caret-color: rgb(31, 35, 40); color: rgb(31, 35, 40); font-family: -apple-system, BlinkMacSystemFont, &amp;quot;Segoe UI&amp;quot;, &amp;quot;Noto Sans&amp;quot;, Helvetica, Arial, sans-serif, &amp;quot;Apple Color Emoji&amp;quot;, &amp;quot;Segoe UI Emoji&amp;quot;; background-color: rgb(255, 255, 255);&quot;&gt;.&amp;nbsp;&lt;/span&gt;&lt;br&gt;&lt;/li&gt;&lt;li style=&quot;&quot;&gt;&lt;span style=&quot;caret-color: rgb(31, 35, 40); color: rgb(31, 35, 40); font-family: -apple-system, BlinkMacSystemFont, &amp;quot;Segoe UI&amp;quot;, &amp;quot;Noto Sans&amp;quot;, Helvetica, Arial, sans-serif, &amp;quot;Apple Color Emoji&amp;quot;, &amp;quot;Segoe UI Emoji&amp;quot;; background-color: rgb(255, 255, 255);&quot;&gt;The total amount (&lt;span style=&quot;box-sizing: border-box;&quot;&gt;including vas items&lt;/span&gt;) of the &lt;b&gt;Cart cannot exceed&amp;nbsp;&lt;/b&gt;&lt;span style=&quot;box-sizing: border-box;&quot;&gt;&lt;b&gt;500,000&lt;/b&gt;&lt;/span&gt;&lt;b&gt;&amp;nbsp;TL&lt;/b&gt;.&amp;nbsp;&lt;br&gt;&lt;/span&gt;&lt;/li&gt;&lt;/ul&gt;&lt;p&gt;&lt;/p&gt;" style="text;html=1;whiteSpace=wrap;overflow=hidden;rounded=0;" vertex="1" parent="1">
          <mxGeometry x="-100" y="-290" width="450" height="110" as="geometry" />
        </mxCell>
        <mxCell id="xQnQvobqsvPUaE5G5NAj-79" value="" style="edgeStyle=orthogonalEdgeStyle;rounded=0;orthogonalLoop=1;jettySize=auto;html=1;" edge="1" parent="1" source="xQnQvobqsvPUaE5G5NAj-72" target="xQnQvobqsvPUaE5G5NAj-78">
          <mxGeometry relative="1" as="geometry" />
        </mxCell>
        <mxCell id="xQnQvobqsvPUaE5G5NAj-81" value="" style="edgeStyle=orthogonalEdgeStyle;rounded=0;orthogonalLoop=1;jettySize=auto;html=1;" edge="1" parent="1" source="xQnQvobqsvPUaE5G5NAj-72" target="xQnQvobqsvPUaE5G5NAj-80">
          <mxGeometry relative="1" as="geometry" />
        </mxCell>
        <mxCell id="xQnQvobqsvPUaE5G5NAj-72" value="&lt;h1 style=&quot;margin-top: 0px;&quot;&gt;Item&lt;/h1&gt;&lt;p&gt;&lt;/p&gt;&lt;ul&gt;&lt;li&gt;&lt;span style=&quot;caret-color: rgb(31, 35, 40); color: rgb(31, 35, 40); font-family: -apple-system, BlinkMacSystemFont, &amp;quot;Segoe UI&amp;quot;, &amp;quot;Noto Sans&amp;quot;, Helvetica, Arial, sans-serif, &amp;quot;Apple Color Emoji&amp;quot;, &amp;quot;Segoe UI Emoji&amp;quot;; background-color: rgb(255, 255, 255);&quot;&gt;&lt;font style=&quot;font-size: 13px;&quot;&gt;Items can be &lt;b&gt;added&lt;/b&gt; to and &lt;b&gt;removed&lt;/b&gt; from the Cart.&lt;/font&gt;&lt;/span&gt;&lt;/li&gt;&lt;li&gt;&lt;span style=&quot;caret-color: rgb(31, 35, 40); color: rgb(31, 35, 40); font-family: -apple-system, BlinkMacSystemFont, &amp;quot;Segoe UI&amp;quot;, &amp;quot;Noto Sans&amp;quot;, Helvetica, Arial, sans-serif, &amp;quot;Apple Color Emoji&amp;quot;, &amp;quot;Segoe UI Emoji&amp;quot;; background-color: rgb(255, 255, 255);&quot;&gt;&lt;font&gt;&lt;font style=&quot;font-size: 13px;&quot;&gt;The price of each item is determined &lt;b&gt;differently&lt;/b&gt; and &lt;b&gt;provided as input&lt;/b&gt; to the application.&lt;/font&gt;&lt;br&gt;&lt;/font&gt;&lt;/span&gt;&lt;/li&gt;&lt;/ul&gt;&lt;p&gt;&lt;/p&gt;" style="text;html=1;whiteSpace=wrap;overflow=hidden;rounded=0;" vertex="1" parent="1">
          <mxGeometry x="-90" y="-80" width="450" height="110" as="geometry" />
        </mxCell>
        <mxCell id="xQnQvobqsvPUaE5G5NAj-76" style="edgeStyle=orthogonalEdgeStyle;rounded=0;orthogonalLoop=1;jettySize=auto;html=1;entryX=0.986;entryY=0.101;entryDx=0;entryDy=0;entryPerimeter=0;" edge="1" parent="1" target="xQnQvobqsvPUaE5G5NAj-15">
          <mxGeometry relative="1" as="geometry">
            <mxPoint x="-80" y="-24.47" as="sourcePoint" />
            <mxPoint x="-480" y="-40" as="targetPoint" />
            <Array as="points">
              <mxPoint x="-479" y="-24" />
            </Array>
          </mxGeometry>
        </mxCell>
        <mxCell id="xQnQvobqsvPUaE5G5NAj-77" style="edgeStyle=orthogonalEdgeStyle;rounded=0;orthogonalLoop=1;jettySize=auto;html=1;entryX=0.988;entryY=0.089;entryDx=0;entryDy=0;entryPerimeter=0;" edge="1" parent="1" source="xQnQvobqsvPUaE5G5NAj-70" target="xQnQvobqsvPUaE5G5NAj-5">
          <mxGeometry relative="1" as="geometry">
            <Array as="points">
              <mxPoint x="-220" y="-233" />
              <mxPoint x="-220" y="-233" />
            </Array>
          </mxGeometry>
        </mxCell>
        <mxCell id="xQnQvobqsvPUaE5G5NAj-78" value="&lt;h1 style=&quot;margin-top: 0px;&quot;&gt;DigitalItem&lt;/h1&gt;&lt;p&gt;&lt;/p&gt;&lt;ul style=&quot;font-size: 13px;&quot;&gt;&lt;li style=&quot;font-size: 13px;&quot;&gt;&lt;span style=&quot;caret-color: rgb(31, 35, 40); color: rgb(31, 35, 40); font-family: -apple-system, BlinkMacSystemFont, &amp;quot;Segoe UI&amp;quot;, &amp;quot;Noto Sans&amp;quot;, Helvetica, Arial, sans-serif, &amp;quot;Apple Color Emoji&amp;quot;, &amp;quot;Segoe UI Emoji&amp;quot;; background-color: rgb(255, 255, 255);&quot;&gt;The maximum quantity of DigitalItem that can be added is&amp;nbsp;&lt;/span&gt;&lt;span style=&quot;box-sizing: border-box; caret-color: rgb(31, 35, 40); color: rgb(31, 35, 40); font-family: -apple-system, BlinkMacSystemFont, &amp;quot;Segoe UI&amp;quot;, &amp;quot;Noto Sans&amp;quot;, Helvetica, Arial, sans-serif, &amp;quot;Apple Color Emoji&amp;quot;, &amp;quot;Segoe UI Emoji&amp;quot;;&quot;&gt;&lt;b&gt;5&lt;/b&gt;&lt;/span&gt;&lt;span style=&quot;caret-color: rgb(31, 35, 40); color: rgb(31, 35, 40); font-family: -apple-system, BlinkMacSystemFont, &amp;quot;Segoe UI&amp;quot;, &amp;quot;Noto Sans&amp;quot;, Helvetica, Arial, sans-serif, &amp;quot;Apple Color Emoji&amp;quot;, &amp;quot;Segoe UI Emoji&amp;quot;; background-color: rgb(255, 255, 255);&quot;&gt;.&lt;/span&gt;&lt;br&gt;&lt;/li&gt;&lt;li&gt;&lt;span style=&quot;caret-color: rgb(31, 35, 40); color: rgb(31, 35, 40); font-family: -apple-system, BlinkMacSystemFont, &amp;quot;Segoe UI&amp;quot;, &amp;quot;Noto Sans&amp;quot;, Helvetica, Arial, sans-serif, &amp;quot;Apple Color Emoji&amp;quot;, &amp;quot;Segoe UI Emoji&amp;quot;; background-color: rgb(255, 255, 255);&quot;&gt;CategoryID =&amp;nbsp;&lt;/span&gt;&lt;span style=&quot;box-sizing: border-box; caret-color: rgb(31, 35, 40); color: rgb(31, 35, 40); font-family: -apple-system, BlinkMacSystemFont, &amp;quot;Segoe UI&amp;quot;, &amp;quot;Noto Sans&amp;quot;, Helvetica, Arial, sans-serif, &amp;quot;Apple Color Emoji&amp;quot;, &amp;quot;Segoe UI Emoji&amp;quot;;&quot;&gt;&lt;font style=&quot;font-size: 13px;&quot;&gt;&lt;b&gt;7889&lt;/b&gt;&lt;/font&gt;&lt;/span&gt;&lt;/li&gt;&lt;/ul&gt;&lt;p&gt;&lt;/p&gt;" style="text;html=1;whiteSpace=wrap;overflow=hidden;rounded=0;" vertex="1" parent="1">
          <mxGeometry x="-250" y="120" width="280" height="180" as="geometry" />
        </mxCell>
        <mxCell id="xQnQvobqsvPUaE5G5NAj-83" value="" style="edgeStyle=orthogonalEdgeStyle;rounded=0;orthogonalLoop=1;jettySize=auto;html=1;" edge="1" parent="1" source="xQnQvobqsvPUaE5G5NAj-80" target="xQnQvobqsvPUaE5G5NAj-82">
          <mxGeometry relative="1" as="geometry" />
        </mxCell>
        <mxCell id="xQnQvobqsvPUaE5G5NAj-80" value="&lt;h1 style=&quot;margin-top: 0px;&quot;&gt;DefaultItem&lt;/h1&gt;&lt;p&gt;&lt;/p&gt;&lt;ul&gt;&lt;li&gt;&lt;span style=&quot;font-size: 16px; caret-color: rgb(31, 35, 40); color: rgb(31, 35, 40); font-family: -apple-system, BlinkMacSystemFont, &amp;quot;Segoe UI&amp;quot;, &amp;quot;Noto Sans&amp;quot;, Helvetica, Arial, sans-serif, &amp;quot;Apple Color Emoji&amp;quot;, &amp;quot;Segoe UI Emoji&amp;quot;; background-color: rgb(255, 255, 255);&quot;&gt;The price of the VasItem added to the DefaultItem &lt;b&gt;cannot be higher than the DefaultItem&#39;s price.&lt;/b&gt;&lt;/span&gt;&lt;br&gt;&lt;/li&gt;&lt;/ul&gt;&lt;p&gt;&lt;/p&gt;" style="text;html=1;whiteSpace=wrap;overflow=hidden;rounded=0;" vertex="1" parent="1">
          <mxGeometry x="160" y="120" width="450" height="110" as="geometry" />
        </mxCell>
        <mxCell id="xQnQvobqsvPUaE5G5NAj-82" value="&lt;h1 style=&quot;margin-top: 0px;&quot;&gt;VasItem&lt;/h1&gt;&lt;p&gt;&lt;/p&gt;&lt;ul&gt;&lt;li&gt;&lt;span style=&quot;font-size: 16px; caret-color: rgb(31, 35, 40); color: rgb(31, 35, 40); font-family: -apple-system, BlinkMacSystemFont, &amp;quot;Segoe UI&amp;quot;, &amp;quot;Noto Sans&amp;quot;, Helvetica, Arial, sans-serif, &amp;quot;Apple Color Emoji&amp;quot;, &amp;quot;Segoe UI Emoji&amp;quot;; background-color: rgb(255, 255, 255);&quot;&gt;They can only be added as sub-items to default items in the &lt;b&gt;Furniture&amp;nbsp;&lt;/b&gt;(CategoryID:&amp;nbsp;&lt;span style=&quot;box-sizing: border-box;&quot;&gt;&lt;b&gt;1001&lt;/b&gt;&lt;/span&gt;)&amp;nbsp;and &lt;b&gt;Electronics&lt;/b&gt;&amp;nbsp;(CategoryID:&amp;nbsp;&lt;span style=&quot;box-sizing: border-box;&quot;&gt;&lt;b&gt;3004&lt;/b&gt;&lt;/span&gt;)&amp;nbsp; categories.&lt;/span&gt;&lt;br&gt;&lt;/li&gt;&lt;li&gt;&lt;span style=&quot;font-size: 16px; caret-color: rgb(31, 35, 40); color: rgb(31, 35, 40); font-family: -apple-system, BlinkMacSystemFont, &amp;quot;Segoe UI&amp;quot;, &amp;quot;Noto Sans&amp;quot;, Helvetica, Arial, sans-serif, &amp;quot;Apple Color Emoji&amp;quot;, &amp;quot;Segoe UI Emoji&amp;quot;; background-color: rgb(255, 255, 255);&quot;&gt;A maximum of&amp;nbsp;&lt;span style=&quot;box-sizing: border-box;&quot;&gt;&lt;b&gt;3&lt;/b&gt;&lt;/span&gt;&amp;nbsp;VasItems (same VasItem or different) can be added to a DefaultItem.&amp;nbsp;&lt;br&gt;&lt;/span&gt;&lt;/li&gt;&lt;li&gt;&lt;span style=&quot;font-size: 16px; caret-color: rgb(31, 35, 40); color: rgb(31, 35, 40); font-family: -apple-system, BlinkMacSystemFont, &amp;quot;Segoe UI&amp;quot;, &amp;quot;Noto Sans&amp;quot;, Helvetica, Arial, sans-serif, &amp;quot;Apple Color Emoji&amp;quot;, &amp;quot;Segoe UI Emoji&amp;quot;; background-color: rgb(255, 255, 255);&quot;&gt;The &lt;b&gt;CategoryID&lt;/b&gt; of VasItem is&amp;nbsp;&lt;span style=&quot;box-sizing: border-box;&quot;&gt;&lt;b&gt;3242&lt;/b&gt;&lt;/span&gt;.&lt;br&gt;&lt;/span&gt;&lt;/li&gt;&lt;li&gt;&lt;span style=&quot;font-size: 16px; caret-color: rgb(31, 35, 40); color: rgb(31, 35, 40); font-family: -apple-system, BlinkMacSystemFont, &amp;quot;Segoe UI&amp;quot;, &amp;quot;Noto Sans&amp;quot;, Helvetica, Arial, sans-serif, &amp;quot;Apple Color Emoji&amp;quot;, &amp;quot;Segoe UI Emoji&amp;quot;; background-color: rgb(255, 255, 255);&quot;&gt;The &lt;b&gt;SellerID&lt;/b&gt; of VasItems is&amp;nbsp;&lt;span style=&quot;box-sizing: border-box;&quot;&gt;&lt;b&gt;5003&lt;/b&gt;&lt;/span&gt;&lt;br&gt;&lt;/span&gt;&lt;/li&gt;&lt;/ul&gt;&lt;p&gt;&lt;/p&gt;" style="text;html=1;whiteSpace=wrap;overflow=hidden;rounded=0;" vertex="1" parent="1">
          <mxGeometry x="170" y="300" width="440" height="200" as="geometry" />
        </mxCell>
      </root>
    </mxGraphModel>
  </diagram>
</mxfile>
